inDegrees=no
num_controls=7
num_derivatives=13
num_iterations=91
num_multipliers=7
num_parameters=0
num_slacks=7
num_states=26
objective=0.336028
objective_accelerations=0.033676
objective_balance=0.001148
objective_effort=0.025326
objective_height=0.274225
objective_ligament=0.001653
solver_duration=949.521590
status=Solve_Succeeded
success=true
DataType=double
version=3
OpenSimVersion=4.5
endheader
time	/jointset/ground_pelvis/pelvis_tilt/value	/jointset/ground_pelvis/pelvis_tx/value	/jointset/ground_pelvis/pelvis_ty/value	/jointset/hip_r/hip_flexion_r/value	/jointset/hip_r/hip_adduction_r/value	/jointset/hip_r/hip_rotation_r/value	/jointset/back/lumbar_extension/value	/jointset/patellofemoral_r/patellar_flexion_r/value	/jointset/knee_r/knee_flexion_r/value	/jointset/knee_r/knee_adduction_r/value	/jointset/knee_r/knee_rotation_r/value	/jointset/ankle_r/ankle_angle_r/value	/jointset/subtalar_r/subtalar_angle_r/value	/jointset/ground_pelvis/pelvis_tilt/speed	/jointset/ground_pelvis/pelvis_tx/speed	/jointset/ground_pelvis/pelvis_ty/speed	/jointset/hip_r/hip_flexion_r/speed	/jointset/hip_r/hip_adduction_r/speed	/jointset/hip_r/hip_rotation_r/speed	/jointset/back/lumbar_extension/speed	/jointset/patellofemoral_r/patellar_flexion_r/speed	/jointset/knee_r/knee_flexion_r/speed	/jointset/knee_r/knee_adduction_r/speed	/jointset/knee_r/knee_rotation_r/speed	/jointset/ankle_r/ankle_angle_r/speed	/jointset/subtalar_r/subtalar_angle_r/speed	/forceset/tau_hip_flexion_r	/forceset/tau_hip_adduction_r	/forceset/tau_hip_rotation_r	/forceset/tau_knee_flexion_r	/forceset/tau_ankle_angle_r	/forceset/tau_subtalar_angle_r	/forceset/tau_lumbar_extension	lambda_cid13_p0	lambda_cid14_p0	lambda_cid14_p1	lambda_cid14_p2	lambda_cid14_p3	lambda_cid14_p4	lambda_cid14_p5	/jointset/ground_pelvis/pelvis_tilt/accel	/jointset/ground_pelvis/pelvis_tx/accel	/jointset/ground_pelvis/pelvis_ty/accel	/jointset/hip_r/hip_flexion_r/accel	/jointset/hip_r/hip_adduction_r/accel	/jointset/hip_r/hip_rotation_r/accel	/jointset/back/lumbar_extension/accel	/jointset/patellofemoral_r/patellar_flexion_r/accel	/jointset/knee_r/knee_flexion_r/accel	/jointset/knee_r/knee_adduction_r/accel	/jointset/knee_r/knee_rotation_r/accel	/jointset/ankle_r/ankle_angle_r/accel	/jointset/subtalar_r/subtalar_angle_r/accel	gamma_cid13_p0	gamma_cid14_p0	gamma_cid14_p1	gamma_cid14_p2	gamma_cid14_p3	gamma_cid14_p4	gamma_cid14_p5
1.5	-0.08423916632736324	0.04931472444139423	0.8289979068832172	0.7600277687724677	-0.2398724890935477	-0.09628712681422819	-0.618272940814525	0.8977033382084534	0.8977033382083844	0.02141438763757932	0.1744496108680754	0.3021792739178315	0.1148146070569352	0.4519708303264516	0.2058577237643174	0.4518427838128488	-1.879444499510656	0.01032329685775338	-0.3079632632750802	0.8022133898193361	-1.850432959918837	-1.850432959918839	0.316041910442615	0.0004094869374570305	-0.5199245590267487	-0.1722873070859161	-0.1580390985313352	0.0116035628706879	0.02665644467813342	-0.2830693616615428	-0.01506568237828585	-0.01250428363632435	0.2107805669403478	-11.11368864273343	-47.58503904326925	-12.48580144948693	0.9543223539375721	-0.01537480398247358	-633.1078050709666	54.46847176619223	0.0608465391358125	0.4778022901929205	-0.450534675997438	-0.9328781095787886	-0.1128285557416041	-0.3068842406556344	1.699723720223173	-1.321782335853448	-1.321782335853429	0.6649414404347621	-0.04966748016101485	-0.6022651683393189	-0.2315002978108915	1.516290774359804e-08	-1.394189646372483e-07	-2.113362712906375e-06	-1.279851597425614e-06	3.150532193141716e-07	-4.85348467120233e-08	-1.205160084662187e-06
1.51	-0.07971687039966742	0.05139697656050016	0.8334928946077851	0.7411887901614654	-0.2397749472605457	-0.09938560709577626	-0.6101669806439284	0.8791350787544925	0.8791350787544134	0.02460529771002941	0.1744536278896614	0.2969506528155618	0.1130805188681306	0.4524237458717626	0.2105681061345989	0.4470616643289952	-1.888109124866084	0.009177496407949412	-0.3117224990541602	0.8188827369624385	-1.862969825702374	-1.862969825702347	0.3221274969190034	0.0003931730119837002	-0.5257235090152608	-0.174505726992185	-0.1511870679487302	0.00996036920162289	0.0263291232797303	-0.2796004272903485	-0.01303681118589503	-0.01303469475864557	0.2045281482185799	-12.08895219752682	-46.68372757418966	-12.42285734730961	0.789526163875452	-0.1379297950963137	-628.8494853220824	54.43794753217542	0.02780912676620601	0.4640323770740447	-0.5058786596058475	-0.7969596500895572	-0.1169553457356574	-0.4089209586229476	1.636154110599756	-1.182275754867752	-1.182275754863459	0.5781552334859524	0.02194495505088205	-0.5572146975921772	-0.2138324511231275	1.449720564835285e-08	-1.44813004275022e-07	-2.156534633542239e-06	-1.36673461771185e-06	3.224584464147074e-07	-6.124751047979843e-08	-1.167282954699227e-06
1.52	-0.07519198630361695	0.05352560773663424	0.8379372755225092	0.7222704243165915	-0.2396891633432691	-0.1025213752775323	-0.6018972042220527	0.8604489232316413	0.8604489232315587	0.02785662124368996	0.1744573934327479	0.2916663412567096	0.1113248825574456	0.4524884639985884	0.2151335351699507	0.4417214218440889	-1.895321946284102	0.007971713712710063	-0.3154208433167915	0.8349766400753951	-1.87401217369647	-1.874012173696413	0.3281246026851948	0.0003591912381652978	-0.5310626503431725	-0.1765969314619832	-0.1443350373661268	0.008317175532558525	0.02600180188133936	-0.2761314929191537	-0.01100793999350325	-0.01356510588096567	0.1982757294968101	-13.06295387093469	-45.78614014577033	-12.36146846333791	0.6260108964049627	-0.2529062203103991	-624.6386259894765	54.3961884260064	-0.01679294456136202	0.4488116232070584	-0.5623592762079728	-0.6425173220968589	-0.1248250048286906	-0.2947059373658907	1.584634914193936	-1.022878777965242	-1.022878777965023	0.6472452983953864	-0.05320104983004517	-0.5103034362190736	-0.2060572105167295	1.443054349893645e-08	-1.500471482469468e-07	-2.210343657504685e-06	-1.455810196562262e-06	3.304653418088671e-07	-7.344155056860256e-08	-1.132500812757005e-06
1.53	-0.07066841722392676	0.05569912763137002	0.8423255159427582	0.7032872535517406	-0.239615563586999	-0.105694190927243	-0.5934695939628467	0.8416598865293469	0.8416598865292542	0.03116696737684872	0.1744608373569489	0.2863310391669352	0.1095492603312588	0.4521573321961773	0.2195413360502998	0.4358388619786003	-1.901060240297993	0.006748754311494709	-0.3191357100223541	0.8504272801984972	-1.883535416980653	-1.883535416980632	0.3339121081502429	0.0003236012774180876	-0.5359134443064688	-0.1784898310304407	-0.1372426408900101	0.006542368743525213	0.02556272545008044	-0.273058669770028	-0.008513294414560269	-0.01409369728504341	0.1918315827010733	-14.03205126702715	-44.74721786177254	-12.27861082704969	0.4637185310239709	-0.4679954531322479	-620.5557119151804	54.44198561742562	-0.05149045112603771	0.4324669098084477	-0.6143926393004943	-0.5017114137734076	-0.1213666727204232	-0.408930629221092	1.507558826139026	-0.8780876975096025	-0.8780876975150868	0.5392708021643452	0.02000204342693579	-0.459740339917087	-0.1758068801373948	1.500036129196314e-08	-1.551114030739074e-07	-2.275454603751624e-06	-1.547215368887111e-06	3.391115097650022e-07	-8.50845529985e-08	-1.101007095586816e-06
1.54	-0.06615020289287596	0.05791586605278088	0.8466522931048364	0.6842542546521986	-0.2395542604777318	-0.1089039659624221	-0.5848910212494568	0.8227834092754345	0.8227834092753392	0.03453414209097641	0.1744636733840708	0.2809497745448209	0.107755728999362	0.4514175142719812	0.2237772405049683	0.4294287702098724	-1.905287573221413	0.005512384312178401	-0.3228127204107034	0.8651691309124416	-1.891500284019426	-1.891500284019442	0.3394903188794835	0.0002376118216306637	-0.5402551568110503	-0.1801787526039832	-0.1301502444138934	0.004767561954496856	0.02512364901883999	-0.2699858466209017	-0.006018648835615046	-0.01462228868911306	0.1853874359053354	-14.99361501631822	-43.71226090881758	-12.19845691913179	0.3041537648673203	-0.6712433662290475	-616.520016078568	54.46876987595764	-0.09853016891850459	0.4144323380710368	-0.6678656568558068	-0.3403251040026545	-0.1275071244488887	-0.2871346739232291	1.442877032362312	-0.711203528883157	-0.7112035288832729	0.6053863512339032	-0.06328094883811151	-0.4084871444759337	-0.1652616115336842	1.557247320765275e-08	-1.498348695009828e-07	-2.230346513781967e-06	-1.537219803431639e-06	3.289896476795011e-07	-7.851413708649522e-08	-1.02943638675398e-06
1.55	-0.06164137575288348	0.06017398244270099	0.8509123671260397	0.6651867075833477	-0.2395053163966845	-0.1121503491217289	-0.5761688087182023	0.8038353057577194	0.8038353057576608	0.03795593785840869	0.1744654815172805	0.2755276652394967	0.1059464179265285	0.4502824497599289	0.227804514108831	0.4225006989490173	-1.907944499460026	0.004282401939643419	-0.3265183952009673	0.8791339754734682	-1.897831980278936	-1.897831980278924	0.3447789123205203	0.0001669428602556974	-0.5440758777431068	-0.1816368253785856	-0.1231768263143287	0.003230515018050179	0.02452970102345356	-0.2665579981968833	-0.004124725098966052	-0.01512141814887084	0.1789668362770076	-15.94551786714544	-42.877163993166	-12.13583528516985	0.1420524348633617	-0.6641935987176976	-612.5573797982513	54.42185687238975	-0.1308260857091481	0.3907022878095502	-0.7180852529662768	-0.1867919917815385	-0.1202057878446631	-0.420493231324566	1.352378188079204	-0.5508900811278113	-0.5508900811235133	0.4767961915416204	0.0271819368391647	-0.355172585721751	-0.1295526989029845	1.614722835162788e-08	-1.326439492934084e-07	-2.058246925562761e-06	-1.410392953142324e-06	2.972437509808116e-07	-5.095869569360429e-08	-9.116900136141844e-07
1.56	-0.05714586555669002	0.06247113705191251	0.8551005989561812	0.646100908130508	-0.2394685645382002	-0.1154354308988871	-0.5673111297373176	0.7848325377960764	0.784832537796064	0.0414278596304475	0.1744678113222174	0.2700700871212214	0.1041238316082531	0.4487541255134731	0.2315848843632511	0.4150603319975325	-1.908938050018276	0.003073939799551864	-0.3305524439810963	0.8922624208387664	-1.90243317280416	-1.902433172804119	0.349515519801679	0.0003419461639351807	-0.547348919401211	-0.1828338016923667	-0.1162034082147642	0.001693468081606927	0.02393575302810452	-0.2631301497728638	-0.002230801362315634	-0.01562054760862446	0.1725462366486788	-16.88607819402148	-42.04504783341513	-12.07640957239263	-0.01648334984168198	-0.6487341072423665	-608.6281825298714	54.35676206745363	-0.1771821157993363	0.3650516681826373	-0.7703247949817565	-0.007649967930169148	-0.1232030779602178	-0.3528094718962677	1.27559719321657	-0.3651027820258989	-0.3651027820259543	0.4949891592583013	-0.01414649582722886	-0.2989512896852869	-0.1130423193694061	5.020538875001077e-08	-5.584442763373717e-08	-1.693412157619347e-06	-6.865820469561672e-07	2.079584358924592e-07	7.592543175069296e-08	-8.703482043270322e-07
